# Blender 3.3.1
# www.blender.org
mtllib MapIcon.mtl
g BGCube_Cube.001
v -0.573153 -0.062806 1.000000
v -1.000000 -0.062806 0.573153
v -0.736500 -0.062806 0.967508
v -0.874979 -0.062806 0.874979
v -0.967508 -0.062806 0.736500
v -1.000000 0.061494 0.573153
v -0.573153 0.061494 1.000000
v -0.967508 0.061494 0.736500
v -0.874979 0.061494 0.874979
v -0.736500 0.061494 0.967508
v -1.000000 -0.062806 -0.573153
v -0.573153 -0.062806 -1.000000
v -0.967508 -0.062806 -0.736500
v -0.874979 -0.062806 -0.874979
v -0.736500 -0.062806 -0.967508
v -0.573153 0.061494 -1.000000
v -1.000000 0.061494 -0.573153
v -0.736500 0.061494 -0.967508
v -0.874979 0.061494 -0.874979
v -0.967508 0.061494 -0.736500
v 1.000000 -0.062806 0.573153
v 0.573153 -0.062806 1.000000
v 0.967508 -0.062806 0.736500
v 0.874979 -0.062806 0.874979
v 0.736500 -0.062806 0.967508
v 0.573153 0.061494 1.000000
v 1.000000 0.061494 0.573153
v 0.736500 0.061494 0.967508
v 0.874979 0.061494 0.874979
v 0.967508 0.061494 0.736500
v 0.573153 -0.062806 -1.000000
v 1.000000 -0.062806 -0.573153
v 0.736500 -0.062806 -0.967508
v 0.874979 -0.062806 -0.874979
v 0.967508 -0.062806 -0.736500
v 1.000000 0.061494 -0.573153
v 0.573153 0.061494 -1.000000
v 0.967508 0.061494 -0.736500
v 0.874979 0.061494 -0.874979
v 0.736500 0.061494 -0.967508
vn -0.0000 -0.0000 1.0000
vn 1.0000 -0.0000 -0.0000
vn -0.0000 1.0000 -0.0000
vn -1.0000 -0.0000 -0.0000
vn -0.0000 -0.0000 -1.0000
vn -0.1951 -0.0000 0.9808
vn -0.5556 -0.0000 0.8315
vn -0.8315 -0.0000 0.5556
vn -0.9808 -0.0000 0.1951
vn -0.1951 -0.0000 -0.9808
vn -0.5556 -0.0000 -0.8315
vn -0.8315 -0.0000 -0.5556
vn -0.9808 -0.0000 -0.1951
vn 0.9808 -0.0000 -0.1951
vn 0.8315 -0.0000 -0.5556
vn 0.5556 -0.0000 -0.8315
vn 0.1951 -0.0000 -0.9808
vn 0.1951 -0.0000 0.9808
vn 0.5556 -0.0000 0.8315
vn 0.8315 -0.0000 0.5556
vn 0.9808 -0.0000 0.1951
vn -0.0000 -1.0000 -0.0000
vt 0.375000 0.946644
vt 0.178356 0.750000
vt 0.375000 0.053356
vt 0.125000 0.696644
vt 0.375000 0.967062
vt 0.157937 0.745939
vt 0.375000 1.000000
vt 0.375000 0.000000
vt 0.140628 0.734372
vt 0.375000 0.032937
vt 0.129061 0.717062
vt 0.875000 0.696644
vt 0.625000 0.053356
vt 0.821644 0.750000
vt 0.625000 0.946644
vt 0.870938 0.717062
vt 0.625000 0.032937
vt 0.859372 0.734372
vt 0.625000 1.000000
vt 0.625000 0.000000
vt 0.842062 0.745938
vt 0.625000 0.967063
vt 0.375000 0.196644
vt 0.125000 0.553356
vt 0.375000 0.303356
vt 0.178356 0.500000
vt 0.375000 0.217063
vt 0.129061 0.532937
vt 0.375000 0.250000
vt 0.140628 0.515628
vt 0.375000 0.282937
vt 0.157937 0.504061
vt 0.821644 0.500000
vt 0.625000 0.303356
vt 0.875000 0.553356
vt 0.625000 0.196644
vt 0.842062 0.504061
vt 0.625000 0.282937
vt 0.859372 0.515628
vt 0.625000 0.250000
vt 0.870938 0.532937
vt 0.625000 0.217063
vt 0.375000 0.696644
vt 0.375000 0.803356
vt 0.321644 0.750000
vt 0.375000 0.717063
vt 0.370938 0.717062
vt 0.375000 0.750000
vt 0.359372 0.734372
vt 0.375000 0.782937
vt 0.342063 0.745938
vt 0.678356 0.750000
vt 0.625000 0.803356
vt 0.625000 0.696644
vt 0.657938 0.745939
vt 0.625000 0.782938
vt 0.640628 0.734372
vt 0.625000 0.750000
vt 0.629061 0.717062
vt 0.625000 0.717062
vt 0.375000 0.446644
vt 0.321644 0.500000
vt 0.375000 0.553356
vt 0.375000 0.467063
vt 0.342062 0.504061
vt 0.375000 0.500000
vt 0.359372 0.515628
vt 0.375000 0.532937
vt 0.370939 0.532937
vt 0.625000 0.553356
vt 0.678356 0.500000
vt 0.625000 0.446644
vt 0.629061 0.532937
vt 0.625000 0.532937
vt 0.640628 0.515628
vt 0.625000 0.500000
vt 0.657937 0.504061
vt 0.625000 0.467063
s 0
f 22/44/1 26/53/1 7/15/1 1/1/1
f 32/63/2 36/70/2 27/54/2 21/43/2
f 36/70/3 38/73/3 39/75/3 40/77/3 37/71/3 16/33/3 18/37/3 19/39/3 20/41/3 17/35/3 6/12/3 8/16/3 9/18/3 10/21/3 7/14/3 26/52/3 28/55/3 29/57/3 30/59/3 27/54/3
f 2/3/4 6/13/4 17/36/4 11/23/4
f 12/25/5 16/34/5 37/72/5 31/61/5
f 1/1/6 7/15/6 10/22/6 3/5/6
f 3/5/7 10/22/7 9/19/7 4/7/7
f 4/8/8 9/20/8 8/17/8 5/10/8
f 5/10/9 8/17/9 6/13/9 2/3/9
f 16/34/10 12/25/10 15/31/10 18/38/10
f 18/38/11 15/31/11 14/29/11 19/40/11
f 19/40/12 14/29/12 13/27/12 20/42/12
f 20/42/13 13/27/13 11/23/13 17/36/13
f 36/70/14 32/63/14 35/68/14 38/74/14
f 38/74/15 35/68/15 34/66/15 39/76/15
f 39/76/16 34/66/16 33/64/16 40/78/16
f 40/78/17 33/64/17 31/61/17 37/72/17
f 26/53/18 22/44/18 25/50/18 28/56/18
f 28/56/19 25/50/19 24/48/19 29/58/19
f 29/58/20 24/48/20 23/46/20 30/60/20
f 30/60/21 23/46/21 21/43/21 27/54/21
f 11/24/22 13/28/22 14/30/22 15/32/22 12/26/22 31/62/22 33/65/22 34/67/22 35/69/22 32/63/22 21/43/22 23/47/22 24/49/22 25/51/22 22/45/22 1/2/22 3/6/22 4/9/22 5/11/22 2/4/22
g MapIcon_Cylinder
v -0.141932 0.411890 -0.451955
v -0.141932 0.241081 -0.451955
v -0.047354 0.411890 -0.442640
v -0.047354 0.241081 -0.442640
v 0.043588 0.411890 -0.415053
v 0.043588 0.241081 -0.415053
v 0.127401 0.411890 -0.370254
v 0.127401 0.241081 -0.370254
v 0.214133 0.411890 -0.309965
v 0.214133 0.241081 -0.309965
v 0.593860 0.411890 -0.040906
v 0.593860 0.241081 -0.040906
v 0.638659 0.411890 -0.008159
v 0.638659 0.241081 -0.008159
v 0.664774 0.411890 0.014489
v 0.664774 0.241081 0.014489
v 0.684334 0.411890 0.032831
v 0.684334 0.241081 0.032831
v 0.664774 0.411890 0.051174
v 0.664774 0.241081 0.051174
v 0.638659 0.411890 0.073822
v 0.638659 0.241081 0.073822
v 0.593860 0.411890 0.106568
v 0.593860 0.241081 0.106568
v 0.214133 0.411890 0.375627
v 0.214133 0.241081 0.375627
v 0.127401 0.411890 0.435916
v 0.127401 0.241081 0.435916
v 0.043588 0.411890 0.480715
v 0.043588 0.241081 0.480715
v -0.047354 0.411890 0.508303
v -0.047354 0.241081 0.508303
v -0.141932 0.411890 0.517618
v -0.141932 0.241081 0.517618
v -0.236509 0.411890 0.508303
v -0.236509 0.241081 0.508303
v -0.327451 0.411890 0.480715
v -0.327451 0.241081 0.480715
v -0.411264 0.411890 0.435916
v -0.411264 0.241081 0.435916
v -0.484727 0.411890 0.375627
v -0.484727 0.241081 0.375627
v -0.545017 0.411890 0.302164
v -0.545017 0.241081 0.302164
v -0.589816 0.411890 0.218351
v -0.589816 0.241081 0.218351
v -0.617403 0.411890 0.127408
v -0.617403 0.241081 0.127408
v -0.626718 0.411890 0.032831
v -0.626718 0.241081 0.032831
v -0.617403 0.411890 -0.061746
v -0.617403 0.241081 -0.061746
v -0.589816 0.411890 -0.152689
v -0.589816 0.241081 -0.152689
v -0.545017 0.411890 -0.236502
v -0.545017 0.241081 -0.236502
v -0.484727 0.411890 -0.309965
v -0.484727 0.241081 -0.309965
v -0.411264 0.411890 -0.370254
v -0.411264 0.241081 -0.370254
v -0.327451 0.411890 -0.415053
v -0.327451 0.241081 -0.415053
v -0.236509 0.411890 -0.442640
v -0.236509 0.241081 -0.442640
v -0.141932 0.411890 -0.190171
v -0.141932 0.241081 -0.190171
v -0.098426 0.411890 -0.185886
v -0.098426 0.241081 -0.185886
v -0.056593 0.411890 -0.173196
v -0.056593 0.241081 -0.173196
v -0.018038 0.411890 -0.152588
v -0.018038 0.241081 -0.152588
v 0.015754 0.411890 -0.124855
v 0.015754 0.241081 -0.124855
v 0.043488 0.411890 -0.091062
v 0.043488 0.241081 -0.091062
v 0.064095 0.411890 -0.052508
v 0.064095 0.241081 -0.052508
v 0.076785 0.411890 -0.010674
v 0.076785 0.241081 -0.010674
v 0.081070 0.411890 0.032831
v 0.081070 0.241081 0.032831
v 0.076785 0.411890 0.076337
v 0.076785 0.241081 0.076337
v 0.064095 0.411890 0.118170
v 0.064095 0.241081 0.118170
v 0.043488 0.411890 0.156724
v 0.043488 0.241081 0.156724
v 0.015754 0.411890 0.190517
v 0.015754 0.241081 0.190517
v -0.018038 0.411890 0.218250
v -0.018038 0.241081 0.218250
v -0.056593 0.411890 0.238858
v -0.056593 0.241081 0.238858
v -0.098426 0.411890 0.251548
v -0.098426 0.241081 0.251548
v -0.141932 0.411890 0.255833
v -0.141932 0.241081 0.255833
v -0.185437 0.411890 0.251548
v -0.185437 0.241081 0.251548
v -0.227271 0.411890 0.238858
v -0.227271 0.241081 0.238858
v -0.265825 0.411890 0.218250
v -0.265825 0.241081 0.218250
v -0.299618 0.411890 0.190517
v -0.299618 0.241081 0.190517
v -0.327351 0.411890 0.156724
v -0.327351 0.241081 0.156724
v -0.347958 0.411890 0.118170
v -0.347958 0.241081 0.118170
v -0.360648 0.411890 0.076337
v -0.360648 0.241081 0.076337
v -0.364933 0.411890 0.032831
v -0.364933 0.241081 0.032831
v -0.360648 0.411890 -0.010674
v -0.360648 0.241081 -0.010674
v -0.347958 0.411890 -0.052508
v -0.347958 0.241081 -0.052508
v -0.327351 0.411890 -0.091062
v -0.327351 0.241081 -0.091062
v -0.299618 0.411890 -0.124855
v -0.299618 0.241081 -0.124855
v -0.265825 0.411890 -0.152588
v -0.265825 0.241081 -0.152588
v -0.227271 0.411890 -0.173196
v -0.227271 0.241081 -0.173196
v -0.185437 0.411890 -0.185886
v -0.185437 0.241081 -0.185886
vn 0.0980 -0.0000 -0.9952
vn 0.2903 -0.0000 -0.9569
vn 0.4714 -0.0000 -0.8819
vn 0.5708 -0.0000 -0.8211
vn 0.5781 -0.0000 -0.8159
vn 0.5901 -0.0000 -0.8073
vn 0.6552 -0.0000 -0.7555
vn 0.6841 -0.0000 -0.7294
vn 0.6840 -0.0000 0.7294
vn 0.6552 -0.0000 0.7555
vn 0.5901 -0.0000 0.8073
vn 0.5781 -0.0000 0.8159
vn 0.5708 -0.0000 0.8211
vn 0.4714 -0.0000 0.8819
vn 0.2903 -0.0000 0.9569
vn 0.0980 -0.0000 0.9952
vn -0.0980 -0.0000 0.9952
vn -0.2903 -0.0000 0.9569
vn -0.4714 -0.0000 0.8819
vn -0.6344 -0.0000 0.7730
vn -0.7730 -0.0000 0.6344
vn -0.8819 -0.0000 0.4714
vn -0.9569 -0.0000 0.2903
vn -0.9952 -0.0000 0.0980
vn -0.9952 -0.0000 -0.0980
vn -0.9569 -0.0000 -0.2903
vn -0.8819 -0.0000 -0.4714
vn -0.7730 -0.0000 -0.6344
vn -0.6344 -0.0000 -0.7730
vn -0.4714 -0.0000 -0.8819
vn -0.2903 -0.0000 -0.9569
vn -0.0980 -0.0000 -0.9952
vn 0.6344 -0.0000 -0.7730
vn 0.7730 -0.0000 -0.6344
vn 0.8819 -0.0000 -0.4714
vn 0.9569 -0.0000 -0.2903
vn 0.9952 -0.0000 -0.0980
vn 0.9952 -0.0000 0.0980
vn 0.9569 -0.0000 0.2903
vn 0.8819 -0.0000 0.4714
vn 0.7730 -0.0000 0.6344
vn 0.6344 -0.0000 0.7730
vn -0.0000 1.0000 -0.0000
vn -0.0000 -1.0000 -0.0000
vt 1.000000 0.000000
vt 0.000000 0.000000
vt 1.000000 1.000000
vt 0.000000 1.000000
vt 0.968750 0.000000
vt 0.968750 1.000000
vt 0.937500 0.000000
vt 0.937500 1.000000
vt 0.906250 0.000000
vt 0.906250 1.000000
vt 0.875000 0.000000
vt 0.875000 1.000000
vt 0.843750 0.000000
vt 0.843750 1.000000
vt 0.812500 0.000000
vt 0.812500 1.000000
vt 0.781250 0.000000
vt 0.781250 1.000000
vt 0.750000 0.000000
vt 0.750000 1.000000
vt 0.718750 0.000000
vt 0.718750 1.000000
vt 0.687500 0.000000
vt 0.687500 1.000000
vt 0.656250 0.000000
vt 0.656250 1.000000
vt 0.625000 0.000000
vt 0.625000 1.000000
vt 0.593750 0.000000
vt 0.593750 1.000000
vt 0.562500 0.000000
vt 0.562500 1.000000
vt 0.531250 0.000000
vt 0.531250 1.000000
vt 0.500000 0.000000
vt 0.500000 1.000000
vt 0.468750 0.000000
vt 0.468750 1.000000
vt 0.437500 0.000000
vt 0.437500 1.000000
vt 0.406250 0.000000
vt 0.406250 1.000000
vt 0.375000 0.000000
vt 0.375000 1.000000
vt 0.343750 0.000000
vt 0.343750 1.000000
vt 0.312500 0.000000
vt 0.312500 1.000000
vt 0.281250 0.000000
vt 0.281250 1.000000
vt 0.250000 0.000000
vt 0.250000 1.000000
vt 0.218750 0.000000
vt 0.218750 1.000000
vt 0.187500 0.000000
vt 0.187500 1.000000
vt 0.156250 0.000000
vt 0.156250 1.000000
vt 0.125000 0.000000
vt 0.125000 1.000000
vt 0.093750 0.000000
vt 0.093750 1.000000
vt 0.062500 0.000000
vt 0.062500 1.000000
vt 0.031250 0.000000
vt 0.031250 1.000000
vt 1.000000 0.000000
vt 0.000000 0.000000
vt 1.000000 1.000000
vt 0.000000 1.000000
vt 0.968750 0.000000
vt 0.968750 1.000000
vt 0.937500 0.000000
vt 0.937500 1.000000
vt 0.906250 0.000000
vt 0.906250 1.000000
vt 0.875000 0.000000
vt 0.875000 1.000000
vt 0.843750 0.000000
vt 0.843750 1.000000
vt 0.812500 0.000000
vt 0.812500 1.000000
vt 0.781250 0.000000
vt 0.781250 1.000000
vt 0.750000 0.000000
vt 0.750000 1.000000
vt 0.718750 0.000000
vt 0.718750 1.000000
vt 0.687500 0.000000
vt 0.687500 1.000000
vt 0.656250 0.000000
vt 0.656250 1.000000
vt 0.625000 0.000000
vt 0.625000 1.000000
vt 0.593750 0.000000
vt 0.593750 1.000000
vt 0.562500 0.000000
vt 0.562500 1.000000
vt 0.531250 0.000000
vt 0.531250 1.000000
vt 0.500000 0.000000
vt 0.500000 1.000000
vt 0.468750 0.000000
vt 0.468750 1.000000
vt 0.437500 0.000000
vt 0.437500 1.000000
vt 0.406250 0.000000
vt 0.406250 1.000000
vt 0.375000 0.000000
vt 0.375000 1.000000
vt 0.343750 0.000000
vt 0.343750 1.000000
vt 0.312500 0.000000
vt 0.312500 1.000000
vt 0.281250 0.000000
vt 0.281250 1.000000
vt 0.250000 0.000000
vt 0.250000 1.000000
vt 0.218750 0.000000
vt 0.218750 1.000000
vt 0.187500 0.000000
vt 0.187500 1.000000
vt 0.156250 0.000000
vt 0.156250 1.000000
vt 0.125000 0.000000
vt 0.125000 1.000000
vt 0.093750 0.000000
vt 0.093750 1.000000
vt 0.062500 0.000000
vt 0.062500 1.000000
vt 0.031250 0.000000
vt 0.031250 1.000000
s 0
f 41/79/23 43/83/23 44/84/23 42/81/23
f 43/83/24 45/85/24 46/86/24 44/84/24
f 45/85/25 47/87/25 48/88/25 46/86/25
f 47/87/26 49/89/26 50/90/26 48/88/26
f 49/89/27 51/91/27 52/92/27 50/90/27
f 51/91/28 53/93/28 54/94/28 52/92/28
f 53/93/29 55/95/29 56/96/29 54/94/29
f 55/95/30 57/97/30 58/98/30 56/96/30
f 57/97/31 59/99/31 60/100/31 58/98/31
f 59/99/32 61/101/32 62/102/32 60/100/32
f 61/101/33 63/103/33 64/104/33 62/102/33
f 63/103/34 65/105/34 66/106/34 64/104/34
f 65/105/35 67/107/35 68/108/35 66/106/35
f 67/107/36 69/109/36 70/110/36 68/108/36
f 69/109/37 71/111/37 72/112/37 70/110/37
f 71/111/38 73/113/38 74/114/38 72/112/38
f 73/113/39 75/115/39 76/116/39 74/114/39
f 75/115/40 77/117/40 78/118/40 76/116/40
f 77/117/41 79/119/41 80/120/41 78/118/41
f 79/119/42 81/121/42 82/122/42 80/120/42
f 81/121/43 83/123/43 84/124/43 82/122/43
f 83/123/44 85/125/44 86/126/44 84/124/44
f 85/125/45 87/127/45 88/128/45 86/126/45
f 87/127/46 89/129/46 90/130/46 88/128/46
f 89/129/47 91/131/47 92/132/47 90/130/47
f 91/131/48 93/133/48 94/134/48 92/132/48
f 93/133/49 95/135/49 96/136/49 94/134/49
f 95/135/50 97/137/50 98/138/50 96/136/50
f 97/137/51 99/139/51 100/140/51 98/138/51
f 99/139/52 101/141/52 102/142/52 100/140/52
f 101/141/53 103/143/53 104/144/53 102/142/53
f 103/143/54 41/80/54 42/82/54 104/144/54
f 105/145/39 106/147/39 108/150/39 107/149/39
f 107/149/40 108/150/40 110/152/40 109/151/40
f 109/151/41 110/152/41 112/154/41 111/153/41
f 111/153/42 112/154/42 114/156/42 113/155/42
f 113/155/43 114/156/43 116/158/43 115/157/43
f 115/157/44 116/158/44 118/160/44 117/159/44
f 117/159/45 118/160/45 120/162/45 119/161/45
f 119/161/46 120/162/46 122/164/46 121/163/46
f 121/163/47 122/164/47 124/166/47 123/165/47
f 123/165/48 124/166/48 126/168/48 125/167/48
f 125/167/49 126/168/49 128/170/49 127/169/49
f 127/169/50 128/170/50 130/172/50 129/171/50
f 129/171/51 130/172/51 132/174/51 131/173/51
f 131/173/52 132/174/52 134/176/52 133/175/52
f 133/175/53 134/176/53 136/178/53 135/177/53
f 135/177/54 136/178/54 138/180/54 137/179/54
f 137/179/23 138/180/23 140/182/23 139/181/23
f 139/181/24 140/182/24 142/184/24 141/183/24
f 141/183/25 142/184/25 144/186/25 143/185/25
f 143/185/55 144/186/55 146/188/55 145/187/55
f 145/187/56 146/188/56 148/190/56 147/189/56
f 147/189/57 148/190/57 150/192/57 149/191/57
f 149/191/58 150/192/58 152/194/58 151/193/58
f 151/193/59 152/194/59 154/196/59 153/195/59
f 153/195/60 154/196/60 156/198/60 155/197/60
f 155/197/61 156/198/61 158/200/61 157/199/61
f 157/199/62 158/200/62 160/202/62 159/201/62
f 159/201/63 160/202/63 162/204/63 161/203/63
f 161/203/64 162/204/64 164/206/64 163/205/64
f 163/205/36 164/206/36 166/208/36 165/207/36
f 165/207/37 166/208/37 168/210/37 167/209/37
f 167/209/38 168/210/38 106/148/38 105/146/38
f 41/79/65 105/145/65 107/149/65 43/83/65
f 44/84/66 108/150/66 106/147/66 42/81/66
f 43/83/65 107/149/65 109/151/65 45/85/65
f 46/86/66 110/152/66 108/150/66 44/84/66
f 45/85/65 109/151/65 111/153/65 47/87/65
f 48/88/66 112/154/66 110/152/66 46/86/66
f 47/87/65 111/153/65 113/155/65 49/89/65
f 50/90/66 114/156/66 112/154/66 48/88/66
f 49/89/65 113/155/65 115/157/65 51/91/65
f 52/92/66 116/158/66 114/156/66 50/90/66
f 51/91/65 115/157/65 117/159/65 53/93/65
f 54/94/66 118/160/66 116/158/66 52/92/66
f 53/93/65 117/159/65 119/161/65 55/95/65
f 56/96/66 120/162/66 118/160/66 54/94/66
f 55/95/65 119/161/65 121/163/65 57/97/65
f 58/98/66 122/164/66 120/162/66 56/96/66
f 57/97/65 121/163/65 123/165/65 59/99/65
f 60/100/66 124/166/66 122/164/66 58/98/66
f 59/99/65 123/165/65 125/167/65 61/101/65
f 62/102/66 126/168/66 124/166/66 60/100/66
f 61/101/65 125/167/65 127/169/65 63/103/65
f 64/104/66 128/170/66 126/168/66 62/102/66
f 63/103/65 127/169/65 129/171/65 65/105/65
f 66/106/66 130/172/66 128/170/66 64/104/66
f 65/105/65 129/171/65 131/173/65 67/107/65
f 68/108/66 132/174/66 130/172/66 66/106/66
f 67/107/65 131/173/65 133/175/65 69/109/65
f 70/110/66 134/176/66 132/174/66 68/108/66
f 69/109/65 133/175/65 135/177/65 71/111/65
f 72/112/66 136/178/66 134/176/66 70/110/66
f 71/111/65 135/177/65 137/179/65 73/113/65
f 74/114/66 138/180/66 136/178/66 72/112/66
f 73/113/65 137/179/65 139/181/65 75/115/65
f 76/116/66 140/182/66 138/180/66 74/114/66
f 75/115/65 139/181/65 141/183/65 77/117/65
f 78/118/66 142/184/66 140/182/66 76/116/66
f 77/117/65 141/183/65 143/185/65 79/119/65
f 80/120/66 144/186/66 142/184/66 78/118/66
f 79/119/65 143/185/65 145/187/65 81/121/65
f 82/122/66 146/188/66 144/186/66 80/120/66
f 81/121/65 145/187/65 147/189/65 83/123/65
f 84/124/66 148/190/66 146/188/66 82/122/66
f 83/123/65 147/189/65 149/191/65 85/125/65
f 86/126/66 150/192/66 148/190/66 84/124/66
f 85/125/65 149/191/65 151/193/65 87/127/65
f 88/128/66 152/194/66 150/192/66 86/126/66
f 87/127/65 151/193/65 153/195/65 89/129/65
f 90/130/66 154/196/66 152/194/66 88/128/66
f 89/129/65 153/195/65 155/197/65 91/131/65
f 92/132/66 156/198/66 154/196/66 90/130/66
f 91/131/65 155/197/65 157/199/65 93/133/65
f 94/134/66 158/200/66 156/198/66 92/132/66
f 93/133/65 157/199/65 159/201/65 95/135/65
f 96/136/66 160/202/66 158/200/66 94/134/66
f 95/135/65 159/201/65 161/203/65 97/137/65
f 98/138/66 162/204/66 160/202/66 96/136/66
f 97/137/65 161/203/65 163/205/65 99/139/65
f 100/140/66 164/206/66 162/204/66 98/138/66
f 99/139/65 163/205/65 165/207/65 101/141/65
f 102/142/66 166/208/66 164/206/66 100/140/66
f 101/141/65 165/207/65 167/209/65 103/143/65
f 104/144/66 168/210/66 166/208/66 102/142/66
f 103/143/65 167/209/65 105/146/65 41/80/65
f 42/82/66 106/148/66 168/210/66 104/144/66
